<svg width="1600" height="600" viewBox="0 0 1600 600" fill="none" xmlns="http://www.w3.org/2000/svg">
<rect width="1600" height="600" fill="#F5F5F5"/>
<rect width="1600" height="600" fill="white"/>
<path d="M1253.56 392.82C1236.4 392.82 1220.63 388.833 1206.24 380.86C1191.86 372.713 1180.42 361.533 1171.92 347.32C1163.6 332.933 1159.44 316.727 1159.44 298.7C1159.44 280.673 1163.6 264.553 1171.92 250.34C1180.42 235.953 1191.86 224.773 1206.24 216.8C1220.63 208.827 1236.4 204.84 1253.56 204.84C1270.9 204.84 1286.67 208.827 1300.88 216.8C1315.27 224.773 1326.62 235.953 1334.94 250.34C1343.26 264.553 1347.42 280.673 1347.42 298.7C1347.42 316.727 1343.26 332.933 1334.94 347.32C1326.62 361.533 1315.27 372.713 1300.88 380.86C1286.5 388.833 1270.72 392.82 1253.56 392.82ZM1253.56 345.5C1266.56 345.5 1276.79 341.253 1284.24 332.76C1291.87 324.267 1295.68 312.913 1295.68 298.7C1295.68 284.14 1291.87 272.7 1284.24 264.38C1276.79 255.887 1266.56 251.64 1253.56 251.64C1240.39 251.64 1230.08 255.887 1222.62 264.38C1215.17 272.7 1211.44 284.14 1211.44 298.7C1211.44 313.087 1215.17 324.527 1222.62 333.02C1230.08 341.34 1240.39 345.5 1253.56 345.5Z" fill="#FFC400"/>
<path d="M1054.11 392.82C1036.95 392.82 1021.18 388.833 1006.79 380.86C992.407 372.713 980.967 361.533 972.474 347.32C964.154 332.933 959.994 316.727 959.994 298.7C959.994 280.673 964.154 264.553 972.474 250.34C980.967 235.953 992.407 224.773 1006.79 216.8C1021.18 208.827 1036.95 204.84 1054.11 204.84C1071.45 204.84 1087.22 208.827 1101.43 216.8C1115.82 224.773 1127.17 235.953 1135.49 250.34C1143.81 264.553 1147.97 280.673 1147.97 298.7C1147.97 316.727 1143.81 332.933 1135.49 347.32C1127.17 361.533 1115.82 372.713 1101.43 380.86C1087.05 388.833 1071.27 392.82 1054.11 392.82ZM1054.11 345.5C1067.11 345.5 1077.34 341.253 1084.79 332.76C1092.42 324.267 1096.23 312.913 1096.23 298.7C1096.23 284.14 1092.42 272.7 1084.79 264.38C1077.34 255.887 1067.11 251.64 1054.11 251.64C1040.94 251.64 1030.63 255.887 1023.17 264.38C1015.72 272.7 1011.99 284.14 1011.99 298.7C1011.99 313.087 1015.72 324.527 1023.17 333.02C1030.63 341.34 1040.94 345.5 1054.11 345.5Z" fill="#FFC400"/>
<path d="M914 296.88C924.747 299.307 933.24 304.68 939.48 313C945.893 321.147 949.1 330.507 949.1 341.08C949.1 356.68 943.727 368.9 932.98 377.74C922.233 386.58 907.153 391 887.74 391H797V207.7H884.88C903.6 207.7 918.247 211.86 928.82 220.18C939.567 228.5 944.94 240.2 944.94 255.28C944.94 266.027 942.08 275.04 936.36 282.32C930.813 289.427 923.36 294.28 914 296.88ZM847.96 280.5H873.7C886.527 280.5 892.94 275.213 892.94 264.64C892.94 253.72 886.527 248.26 873.7 248.26H847.96V280.5ZM877.6 349.92C890.427 349.92 896.84 344.547 896.84 333.8C896.84 328.253 895.107 324.007 891.64 321.06C888.347 318.113 883.58 316.64 877.34 316.64H847.96V349.92H877.6Z" fill="#FFC400"/>
<path d="M729.972 391L693.572 323.4H688.112V391H637.152V207.7H717.492C732.226 207.7 744.706 210.3 754.932 215.5C765.159 220.527 772.872 227.547 778.072 236.56C783.272 245.4 785.872 255.367 785.872 266.46C785.872 278.94 782.406 289.947 775.472 299.48C768.712 308.84 758.746 315.513 745.572 319.5L786.912 391H729.972ZM688.112 288.56H713.332C720.266 288.56 725.466 286.913 728.932 283.62C732.399 280.327 734.132 275.56 734.132 269.32C734.132 263.427 732.312 258.833 728.672 255.54C725.206 252.073 720.092 250.34 713.332 250.34H688.112V288.56Z" fill="#0A4D8C"/>
<path d="M507.175 207.7V314.04C507.175 323.92 509.428 331.547 513.935 336.92C518.615 342.293 525.635 344.98 534.995 344.98C544.355 344.98 551.375 342.293 556.055 336.92C560.908 331.373 563.335 323.747 563.335 314.04V207.7H614.295V314.04C614.295 330.853 610.741 345.24 603.635 357.2C596.528 368.987 586.821 377.913 574.515 383.98C562.381 389.873 548.861 392.82 533.955 392.82C519.048 392.82 505.701 389.873 493.915 383.98C482.301 377.913 473.115 368.987 466.355 357.2C459.768 345.413 456.475 331.027 456.475 314.04V207.7H507.175Z" fill="#0A4D8C"/>
<path d="M383.38 391L346.98 323.4H341.52V391H290.56V207.7H370.9C385.633 207.7 398.113 210.3 408.34 215.5C418.567 220.527 426.28 227.547 431.48 236.56C436.68 245.4 439.28 255.367 439.28 266.46C439.28 278.94 435.813 289.947 428.88 299.48C422.12 308.84 412.153 315.513 398.98 319.5L440.32 391H383.38ZM341.52 288.56H366.74C373.673 288.56 378.873 286.913 382.34 283.62C385.807 280.327 387.54 275.56 387.54 269.32C387.54 263.427 385.72 258.833 382.08 255.54C378.613 252.073 373.5 250.34 366.74 250.34H341.52V288.56Z" fill="#0A4D8C"/>
<rect width="82" height="82" transform="translate(320 235)" fill="#0A4D8C"/>
<path d="M361 276C362.879 276 364.488 275.331 365.826 273.993C367.164 272.655 367.833 271.046 367.833 269.167C367.833 267.287 367.164 265.679 365.826 264.341C364.488 263.002 362.879 262.333 361 262.333C359.121 262.333 357.512 263.002 356.174 264.341C354.836 265.679 354.167 267.287 354.167 269.167C354.167 271.046 354.836 272.655 356.174 273.993C357.512 275.331 359.121 276 361 276ZM361 310.167C351.832 302.365 344.984 295.119 340.457 288.428C335.93 281.737 333.667 275.544 333.667 269.85C333.667 261.308 336.414 254.503 341.909 249.435C347.405 244.367 353.768 241.833 361 241.833C368.232 241.833 374.595 244.367 380.091 249.435C385.586 254.503 388.333 261.308 388.333 269.85C388.333 275.544 386.07 281.737 381.543 288.428C377.016 295.119 370.168 302.365 361 310.167Z" fill="#F5F7FA"/>
<path opacity="0.95" d="M805 408C805 408 974.646 420.484 1083.5 418.5C1191.95 416.524 1340 404 1340 404" stroke="#FFC400" stroke-width="14" stroke-linecap="round"/>
</svg>
